<?xml version="1.0" encoding="utf-8"?>
<!-- Generator: Adobe Illustrator 18.1.0, SVG Export Plug-In . SVG Version: 6.00 Build 0)  -->
<svg version="1.1" id="Layer_1" xmlns="http://www.w3.org/2000/svg" xmlns:xlink="http://www.w3.org/1999/xlink" x="0px" y="0px"
	 viewBox="-447 249 64 64" enable-background="new -447 249 64 64" xml:space="preserve">
<path fill="#353432" d="M-393.7,249h-42.7c-5.9,0-10.7,4.8-10.7,10.7v42.7c0,5.9,4.8,10.7,10.7,10.7h21.3v-28h-8v-8h8v-6
	c0-5.5,4.5-10,10-10h10v8h-10c-1.1,0-2,0.9-2,2v6h11l-2,8h-9v28h13.3c5.9,0,10.7-4.8,10.7-10.7v-42.7
	C-383,253.8-387.8,249-393.7,249L-393.7,249z"/>
</svg>
