<?xml version="1.0" encoding="utf-8"?>
<!-- Generator: Adobe Illustrator 18.1.0, SVG Export Plug-In . SVG Version: 6.00 Build 0)  -->
<svg version="1.1" id="Layer_1" xmlns="http://www.w3.org/2000/svg" xmlns:xlink="http://www.w3.org/1999/xlink" x="0px" y="0px"
	 viewBox="-447 249 64 64" enable-background="new -447 249 64 64" xml:space="preserve">
<path fill="#353432" d="M-393.7,249h-42.7c-5.9,0-10.7,4.8-10.7,10.7v42.7c0,5.9,4.8,10.7,10.7,10.7h42.7c5.9,0,10.7-4.8,10.7-10.7
	v-42.7C-383,253.8-387.8,249-393.7,249z M-399.1,272.8c0,0.4,0,0.7,0,1.1c0,10.8-8.3,23.3-23.3,23.3c-4.6,0-8.9-1.4-12.6-3.7
	c0.6,0.1,1.3,0.1,2,0.1c3.8,0,7.4-1.3,10.2-3.5c-3.6-0.1-6.6-2.4-7.7-5.7c0.5,0.1,1,0.1,1.5,0.1c0.7,0,1.5-0.1,2.2-0.3
	c-3.8-0.8-6.6-4.1-6.6-8c0,0,0-0.1,0-0.1c1.1,0.6,2.4,1,3.7,1c-2.2-1.5-3.7-4-3.7-6.8c0-1.5,0.4-2.9,1.1-4.1c4,5,10.1,8.2,16.9,8.6
	c-0.1-0.6-0.2-1.2-0.2-1.9c0-4.5,3.7-8.2,8.2-8.2c2.4,0,4.5,1,6,2.6c1.9-0.4,3.6-1.1,5.2-2c-0.6,1.9-1.9,3.5-3.6,4.5
	c1.7-0.2,3.2-0.6,4.7-1.3C-396.1,270.2-397.5,271.7-399.1,272.8z"/>
</svg>
