<?xml version="1.0" encoding="utf-8"?>
<!-- Generator: Adobe Illustrator 18.1.0, SVG Export Plug-In . SVG Version: 6.00 Build 0)  -->
<svg version="1.1" id="Layer_1" xmlns="http://www.w3.org/2000/svg" xmlns:xlink="http://www.w3.org/1999/xlink" x="0px" y="0px"
	 viewBox="-447 249 64 64" enable-background="new -447 249 64 64" xml:space="preserve">
<path fill="#FFFFFF" d="M-447,268.3l2.6,3.4c0,0,5.4-4.2,7.1-2.1c1.8,2.1,8.6,27.6,10.9,32.3c2,4.1,7.5,9.6,13.5,5.7
	c6-3.9,26-21,29.6-41.1c3.6-20.1-24-15.9-27,1.6c7.3-4.4,11.2,1.8,7.5,8.8c-3.7,7-7.1,11.5-8.9,11.5c-1.8,0-3.2-4.7-5.2-12.8
	c-2.1-8.4-2.1-23.7-10.9-21.9C-436.1,255.3-447,268.3-447,268.3L-447,268.3z"/>
</svg>
