<?xml version="1.0" encoding="utf-8"?>
<!-- Generator: Adobe Illustrator 18.1.0, SVG Export Plug-In . SVG Version: 6.00 Build 0)  -->
<svg version="1.1" id="Layer_1" xmlns="http://www.w3.org/2000/svg" xmlns:xlink="http://www.w3.org/1999/xlink" x="0px" y="0px"
	 viewBox="-447 249 64 64" enable-background="new -447 249 64 64" xml:space="preserve">
<path fill="#353432" d="M-393.7,249h-42.7c-5.9,0-10.7,4.8-10.7,10.7v42.7c0,5.9,4.8,10.7,10.7,10.7h42.7c5.9,0,10.7-4.8,10.7-10.7
	v-42.7C-383,253.8-387.8,249-393.7,249z M-396.2,276.4c-2.1,12-14,22.1-17.5,24.4c-3.6,2.3-6.8-0.9-8-3.4
	c-1.4-2.8-5.4-17.9-6.5-19.2c-1.1-1.3-4.2,1.3-4.2,1.3l-1.5-2c0,0,6.5-7.7,11.4-8.7c5.2-1,5.2,8,6.5,13c1.2,4.8,2,7.6,3.1,7.6
	c1.1,0,3.1-2.7,5.3-6.8c2.2-4.1-0.1-7.8-4.4-5.2C-410.5,266.9-394.1,264.4-396.2,276.4L-396.2,276.4z"/>
</svg>
