<?xml version="1.0" encoding="utf-8"?>
<!-- Generator: Adobe Illustrator 18.1.0, SVG Export Plug-In . SVG Version: 6.00 Build 0)  -->
<svg version="1.1" id="Layer_1" xmlns="http://www.w3.org/2000/svg" xmlns:xlink="http://www.w3.org/1999/xlink" x="0px" y="0px"
	 viewBox="0 0 960 560" enable-background="new 0 0 960 560" xml:space="preserve">
<path fill="#45484B" stroke="#EEE6AB" stroke-width="21" stroke-linecap="round" stroke-miterlimit="10" d="M660.8,418.4H217.2
	c-11,0-20-9-20-20V134.4c0-11,9-20,20-20h443.6c11,0,20,9,20,20v263.9C680.8,409.4,671.8,418.4,660.8,418.4z"/>
<g>
	<path fill="none" stroke="#FFFFFF" stroke-width="21" stroke-linecap="round" stroke-miterlimit="10" d="M352.3,181.5L251,264.3
		c-0.4,0.3-0.4,0.9,0,1.3l101.3,84.9"/>
</g>
<g>
	<path fill="none" stroke="#FFFFFF" stroke-width="21" stroke-linecap="round" stroke-miterlimit="10" d="M523.2,181.5l101.3,82.8
		c0.4,0.3,0.4,0.9,0,1.3l-101.3,84.9"/>
</g>
<circle fill="#FFFFFF" stroke="#FFFFFF" stroke-width="2" stroke-miterlimit="10" cx="357.3" cy="265" r="23.1"/>
<circle fill="#FFFFFF" stroke="#FFFFFF" stroke-width="2" stroke-miterlimit="10" cx="440.4" cy="265" r="23.1"/>
<circle fill="#FFFFFF" stroke="#FFFFFF" stroke-width="2" stroke-miterlimit="10" cx="518.9" cy="265" r="23.1"/>
</svg>
