<?xml version="1.0" encoding="utf-8"?>
<!-- Generator: Adobe Illustrator 18.1.0, SVG Export Plug-In . SVG Version: 6.00 Build 0)  -->
<svg version="1.1" id="Layer_1" xmlns="http://www.w3.org/2000/svg" xmlns:xlink="http://www.w3.org/1999/xlink" x="0px" y="0px"
	 viewBox="200 0 560 560" enable-background="new 200 0 560 560" xml:space="preserve">
<path fill="#353432" d="M667.2-0.4H293.6c-51.6,0-93.6,42-93.6,93.6v373.6c0,51.6,42,93.6,93.6,93.6H480v-245h-70v-70h70v-52.5
	c0-48.1,39.4-87.5,87.5-87.5H655v70h-87.5c-9.6,0-17.5,7.9-17.5,17.5v52.5h96.2l-17.5,70H550v245h116.4c51.6,0,93.6-42,93.6-93.6
	V93.2C760.9,41.6,718.9-0.4,667.2-0.4L667.2-0.4z"/>
</svg>
