<?xml version="1.0" encoding="utf-8"?>
<!-- Generator: Adobe Illustrator 18.1.0, SVG Export Plug-In . SVG Version: 6.00 Build 0)  -->
<svg version="1.1" id="Layer_1" xmlns="http://www.w3.org/2000/svg" xmlns:xlink="http://www.w3.org/1999/xlink" x="0px" y="0px"
	 viewBox="220 6 560 546.8" enable-background="new 220 6 560 546.8" xml:space="preserve">
<path fill="#353432" d="M500,6C345.1,6,220,131.1,220,286c0,123.4,80.5,228.4,191.6,266c14,2.6,19.3-6.1,19.3-13.1s0-28.9,0-52.5
	c-77.9,16.6-94.5-33.2-94.5-33.2c-13.1-32.4-31.5-41.1-31.5-41.1c-25.4-17.5,1.8-16.6,1.8-16.6c28,1.8,42.9,28.9,42.9,28.9
	c25.4,42.9,65.6,30.6,81.4,23.6c2.6-18.4,9.6-30.6,17.5-37.6c-62.1-7-127.8-31.5-127.8-138.2c0-30.6,10.5-55.1,28.9-75.3
	c-2.6-7-12.2-35.9,2.6-74.4c0,0,23.6-7.9,77,28.9c22.8-6.1,46.4-9.6,70-9.6c23.6,0,48.1,3.5,70,9.6c53.4-35.9,77-28.9,77-28.9
	c14.9,38.5,5.3,67.4,2.6,74.4c18.4,19.3,28.9,44.6,28.9,75.3c0,107.6-65.6,131.2-127.8,138.2c9.6,8.8,19.3,25.4,19.3,51.6
	c0,37.6,0,67.4,0,77c0,7.9,5.3,16.6,19.3,13.1C699.5,515.2,780,410.2,780,286C780,131.1,654.9,6,500,6L500,6z"/>
</svg>
