<?xml version="1.0" encoding="utf-8"?>
<!-- Generator: Adobe Illustrator 18.1.0, SVG Export Plug-In . SVG Version: 6.00 Build 0)  -->
<svg version="1.1" id="Layer_1" xmlns="http://www.w3.org/2000/svg" xmlns:xlink="http://www.w3.org/1999/xlink" x="0px" y="0px"
	 viewBox="0 0 960 560" enable-background="new 0 0 960 560" xml:space="preserve">
<path fill="#EEE6AB" stroke="#36393B" stroke-width="21" stroke-miterlimit="10" d="M258.4,162.4h-38.3c-10.1,0-18.4-8.3-18.4-18.4
	v-10.2c0-10.1,8.3-18.4,18.4-18.4h38.3c10.1,0,18.4,8.3,18.4,18.4v10.2C276.9,154.1,268.6,162.4,258.4,162.4z"/>
<path fill="#EEE6AB" stroke="#36393B" stroke-width="21" stroke-miterlimit="10" d="M507.6,162.4H333.2c-14,0-25.5-11.5-25.5-25.5
	c0,0,11.5-61.8,25.5-61.8h174.4c14,0,25.5,61.8,25.5,61.8C533.1,150.9,521.6,162.4,507.6,162.4z"/>
<path fill="#EEE6AB" stroke="#36393B" stroke-width="21" stroke-miterlimit="10" d="M627.8,492.2H211.3c-14,0-58.1,0-58.1-56.8
	V222.5c0-14-0.3-73,77.2-73l377.4-0.2c82.5,0,83.3,73.2,83.3,87.2l-4.3,198.9C686.8,492.2,641.9,492.2,627.8,492.2z"/>
<circle fill="#FFFFFF" stroke="#36393B" stroke-width="21" stroke-miterlimit="10" cx="420.3" cy="318.9" r="122.9"/>
<g>
	<path fill="none" stroke="#EEE6AB" stroke-width="13" stroke-linecap="round" stroke-miterlimit="10" d="M420.4,228.8
		c0,0-82.4,2.9-88.3,83.6"/>
</g>
</svg>
