<?xml version="1.0" encoding="utf-8"?>
<!-- Generator: Adobe Illustrator 18.1.0, SVG Export Plug-In . SVG Version: 6.00 Build 0)  -->
<svg version="1.1" id="Layer_1" xmlns="http://www.w3.org/2000/svg" xmlns:xlink="http://www.w3.org/1999/xlink" x="0px" y="0px"
	 viewBox="223.6 0 560.9 560" enable-background="new 223.6 0 560.9 560" xml:space="preserve">
<path fill="#353432" d="M690.8-0.4H317.2c-51.6,0-93.6,42-93.6,93.6v373.6c0,51.6,42,93.6,93.6,93.6h373.6c51.6,0,93.6-42,93.6-93.6
	V93.2C784.5,41.6,742.5-0.4,690.8-0.4z M643.6,207.8c0,3.5,0,6.1,0,9.6c0,94.5-72.6,203.9-203.9,203.9c-40.3,0-77.9-12.2-110.3-32.4
	c5.3,0.9,11.4,0.9,17.5,0.9c33.2,0,64.7-11.4,89.3-30.6c-31.5-0.9-57.8-21-67.4-49.9c4.4,0.9,8.8,0.9,13.1,0.9
	c6.1,0,13.1-0.9,19.3-2.6c-33.2-7-57.8-35.9-57.8-70v-0.9c9.6,5.3,21,8.8,32.4,8.8c-19.3-13.1-32.4-35-32.4-59.5
	c0-13.1,3.5-25.4,9.6-35.9c35,43.8,88.4,71.8,147.9,75.3c-0.9-5.3-1.8-10.5-1.8-16.6c0-39.4,32.4-71.8,71.8-71.8
	c21,0,39.4,8.8,52.5,22.8c16.6-3.5,31.5-9.6,45.5-17.5c-5.3,16.6-16.6,30.6-31.5,39.4c14.9-1.8,28-5.3,41.1-11.4
	C669.8,185.1,657.6,198.2,643.6,207.8z"/>
</svg>
