<?xml version="1.0" encoding="utf-8"?>
<!-- Generator: Adobe Illustrator 18.1.0, SVG Export Plug-In . SVG Version: 6.00 Build 0)  -->
<svg version="1.1" id="Layer_1" xmlns="http://www.w3.org/2000/svg" xmlns:xlink="http://www.w3.org/1999/xlink" x="0px" y="0px"
	 viewBox="199.6 0 560.9 560" enable-background="new 199.6 0 560.9 560" xml:space="preserve">
<path fill="#353432" d="M666.8-0.4H293.2c-51.6,0-93.6,42-93.6,93.6v373.6c0,51.6,42,93.6,93.6,93.6h373.6c51.6,0,93.6-42,93.6-93.6
	V93.2C760.4,41.6,718.4-0.4,666.8-0.4z M644.9,239.3c-18.4,105-122.5,193.4-153.1,213.5c-31.5,20.1-59.5-7.9-70-29.7
	c-12.2-24.5-47.2-156.6-56.9-168c-9.6-11.4-36.8,11.4-36.8,11.4l-13.1-17.5c0,0,56.9-67.4,99.7-76.1c45.5-8.8,45.5,70,56.9,113.8
	c10.5,42,17.5,66.5,27.1,66.5s27.1-23.6,46.4-59.5c19.3-35.9-0.9-68.2-38.5-45.5C519.8,156.2,663.3,134.3,644.9,239.3L644.9,239.3z"
	/>
</svg>
